<?xml version="1.0" encoding="utf-8"?>
<!-- Generator: Adobe Illustrator 26.1.0, SVG Export Plug-In . SVG Version: 6.00 Build 0)  -->
<svg version="1.1" id="Слой_1" xmlns="http://www.w3.org/2000/svg" xmlns:xlink="http://www.w3.org/1999/xlink" x="0px" y="0px"
	 viewBox="0 0 1280 215" style="enable-background:new 0 0 1280 586;" xml:space="preserve">
	<style type="text/css">
	.st0{fill:#0C394C;}
	.st1{fill:#FFFFFF;}
	.st2{fill:#FCBA02;}
	.st3{fill:#FDAC03;}
	.st4{fill:#FC9302;}
</style>
	<path id="screw-right" d="M1107.2,145h-35.7V99h35.7V145z"/>
	<path id="screw-left" d="M208.6,145h-35.7V99h35.7V145z"/>
	<path id="correles" class="st0" d="M1091.4,167.6l-452.2,42.1L187,167.6c-12.8-1.2-22.6-12-22.6-24.8l0,0
	c0-13.8,11.2-24.9,24.9-24.9H1089c13.8,0,24.9,11.2,24.9,24.9l0,0C1114,155.6,1104.2,166.4,1091.4,167.6z"/>
	<path id="screw-left_00000070115585112968436500000011328507701246409356_" class="st1" d="M202.6,142.5c0,6.6-5.3,11.9-11.9,11.9
	s-11.9-5.3-11.9-11.9s5.3-11.9,11.9-11.9S202.6,135.9,202.6,142.5z"/>
	<path id="screw-right_00000147178022644377502450000004321213763736786861_" class="st1" d="M1101.2,142.5c0,6.6-5.3,11.9-11.9,11.9
	s-11.9-5.3-11.9-11.9s5.3-11.9,11.9-11.9C1095.9,130.6,1101.2,135.9,1101.2,142.5z"/>
	<g id="bowl-left">
		<path class="st2" d="M18,50.9V12.3h345.4v38.6c0,30.4-24.6,55-55,55H73C42.6,105.9,18,81.3,18,50.9z"/>
		<path class="st3" d="M18,12.3h345.4v38.6c0,8.2-1.8,15.9-5,22.9L18,39.7V12.3z"/>
		<path class="st4" d="M371.4,25.9H10c-3.6,0-6.5-2.9-6.5-6.5v-9.1c0-3.6,2.9-6.5,6.5-6.5h361.4c3.6,0,6.5,2.9,6.5,6.5v9.1
		C377.9,23,375,25.9,371.4,25.9z"/>
	</g>
	<g id="bowl-right">
		<path class="st2" d="M916.6,50.9V12.3H1262v38.6c0,30.4-24.6,55-55,55H971.6C941.2,105.9,916.6,81.3,916.6,50.9z"/>
		<path class="st3" d="M916.6,12.3H1262v38.6c0,8.2-1.8,15.9-5,22.9L916.6,39.7V12.3z"/>
		<path class="st4" d="M1270,25.9H908.6c-3.6,0-6.5-2.9-6.5-6.5v-9.1c0-3.6,2.9-6.5,6.5-6.5H1270c3.6,0,6.5,2.9,6.5,6.5v9.1
		C1276.5,23,1273.6,25.9,1270,25.9z"/>
	</g>
</svg>