<?xml version="1.0" encoding="utf-8"?>
<!-- Generator: Adobe Illustrator 26.1.0, SVG Export Plug-In . SVG Version: 6.00 Build 0)  -->
<svg version="1.1" id="Слой_1" xmlns="http://www.w3.org/2000/svg" xmlns:xlink="http://www.w3.org/1999/xlink" x="0px" y="0px"
	 viewBox="0 205 1280 380" style="enable-background:new 0 0 1280 586;" xml:space="preserve">
	<style type="text/css">
	.st0{fill:#0C394C;}
	.st1{fill:#154C68;}
</style>
	<path id="platform_00000066487454475970054830000007121464794044131464_" class="st0" d="M793.2,535.2v30.2h-308v-30.2
	c0-14.3,11.6-26,26-26h256.1C781.5,509.2,793.2,520.9,793.2,535.2z"/>
	<path id="platform" class="st1" d="M542.2,509.2l83.1-288.9c4-13.9,23.6-13.9,27.6,0l83.1,288.9H542.2z M821.7,582.2H456.6
	c-3,0-5.5-2.5-5.5-5.5V569c0-3,2.5-5.5,5.5-5.5h365.1c3,0,5.5,2.5,5.5,5.5v7.7C827.2,579.8,824.7,582.2,821.7,582.2z"/>
</svg>