
                    <svg version="1.1" xmlns="http://www.w3.org/2000/svg" xmlns:xlink="http://www.w3.org/1999/xlink" x="0px" y="0px" viewBox="0 0 370 370" style="enable-background:new 0 0 370 370;" xml:space="preserve">
                        <style type="text/css">
                            .repeatLines_st0 {
                                fill: #999999;
                                stroke-dasharray: .5, 10;
                                opacity: 0.3;
                                stroke-linecap: round;
                                stroke-linejoin: round;
                            }

                            .repeatLines_st1 {
                                stroke: #000000;
                                opacity: 0.01;
                                stroke-width: 20;
                            }

                            .repeatLines_st2 {
                                fill: none;
                                stroke: #000000;
                                stroke-width: 7;
                                stroke-miterlimit: 10;
                            }

                            .repeatLines_st3 {
                                stroke: #0892a7;
                                stroke-width: 12;
                                opacity: 1;
                            }
                        </style>
                        <g id="grid__noactive_" class="repeatLines_st0">
                            <!-- <line id="Line36-4_noactive" class="repeatLines_st2" x1="597.5" y1="714.5" x2="714.5" y2="597.5" />
                        <line id="Line36-3_noactive" class="repeatLines_st2" x1="597.5" y1="597.5" x2="714.5" y2="714.5" />
                        <line id="Line36-2_noactive" class="repeatLines_st2" x1="593" y1="715.5" x2="719" y2="715.5" />
                        <line id="Line36-1_noactive" class="repeatLines_st2" x1="715.5" y1="593" x2="715.5" y2="719" />

                        <line id="Line35-4_noactive" class="repeatLines_st2" x1="479.1" y1="714.5" x2="596.1" y2="597.5" />
                        <line id="Line35-3_noactive" class="repeatLines_st2" x1="479.1" y1="597.5" x2="596.1" y2="714.5" />
                        <line id="Line35-2_noactive" class="repeatLines_st2" x1="474.6" y1="715.5" x2="600.6" y2="715.5" />
                        <line id="Line35-1_noactive" class="repeatLines_st2" x1="597.1" y1="593" x2="597.1" y2="719" />

                        <line id="Line34-4_noactive" class="repeatLines_st2" x1="360.7" y1="714.5" x2="477.7" y2="597.5" />
                        <line id="Line34-3_noactive" class="repeatLines_st2" x1="360.7" y1="597.5" x2="477.7" y2="714.5" />
                        <line id="Line34-2_noactive" class="repeatLines_st2" x1="356.2" y1="715.5" x2="482.2" y2="715.5" />
                        <line id="Line34-1_noactive" class="repeatLines_st2" x1="478.7" y1="593" x2="478.7" y2="719" />

                        <line id="Line33-4_noactive" class="repeatLines_st2" x1="242.3" y1="714.5" x2="359.3" y2="597.5" />
                        <line id="Line33-3_noactive" class="repeatLines_st2" x1="242.3" y1="597.5" x2="359.3" y2="714.5" />
                        <line id="Line33-2_noactive" class="repeatLines_st2" x1="237.8" y1="715.5" x2="363.8" y2="715.5" />
                        <line id="Line33-1_noactive" class="repeatLines_st2" x1="360.3" y1="593" x2="360.3" y2="719" />

                        <line id="Line32-4_noactive" class="repeatLines_st2" x1="123.9" y1="714.5" x2="240.9" y2="597.5" />
                        <line id="Line32-3_noactive" class="repeatLines_st2" x1="123.9" y1="597.5" x2="240.9" y2="714.5" />
                        <line id="Line32-2_noactive" class="repeatLines_st2" x1="119.4" y1="715.5" x2="245.4" y2="715.5" />
                        <line id="Line32-1_noactive" class="repeatLines_st2" x1="241.9" y1="593" x2="241.9" y2="719" />

                        <line id="Line31-5_noactive" class="repeatLines_st2" x1="5.5" y1="714.5" x2="122.5" y2="597.5" />
                        <line id="Line31-4_noactive" class="repeatLines_st2" x1="5.5" y1="597.5" x2="122.5" y2="714.5" />
                        <line id="Line31-3_noactive" class="repeatLines_st2" x1="4.5" y1="593" x2="4.5" y2="719" />
                        <line id="Line31-2_noactive" class="repeatLines_st2" x1="1" y1="715.5" x2="127" y2="715.5" />
                        <line id="Line31-1_noactive" class="repeatLines_st2" x1="123.5" y1="593" x2="123.5" y2="719" />

                        <line id="Line30-4_noactive" class="repeatLines_st2" x1="597.5" y1="596.1" x2="714.5" y2="479.1" />
                        <line id="Line30-3_noactive" class="repeatLines_st2" x1="597.5" y1="479.1" x2="714.5" y2="596.1" />
                        <line id="Line30-2_noactive" class="repeatLines_st2" x1="593" y1="597.1" x2="719" y2="597.1" />
                        <line id="Line30-1_noactive" class="repeatLines_st2" x1="715.5" y1="474.6" x2="715.5" y2="600.6" />

                        <line id="Line29-4_noactive" class="repeatLines_st2" x1="479.1" y1="596.1" x2="596.1" y2="479.1" />
                        <line id="Line29-3_noactive" class="repeatLines_st2" x1="479.1" y1="479.1" x2="596.1" y2="596.1" />
                        <line id="Line29-2_noactive" class="repeatLines_st2" x1="474.6" y1="597.1" x2="600.6" y2="597.1" />
                        <line id="Line29-1_noactive" class="repeatLines_st2" x1="597.1" y1="474.6" x2="597.1" y2="600.6" />

                        <line id="Line28-4_noactive" class="repeatLines_st2" x1="360.7" y1="596.1" x2="477.7" y2="479.1" />
                        <line id="Line28-3_noactive" class="repeatLines_st2" x1="360.7" y1="479.1" x2="477.7" y2="596.1" />
                        <line id="Line28-2_noactive" class="repeatLines_st2" x1="356.2" y1="597.1" x2="482.2" y2="597.1" />
                        <line id="Line28-1_noactive" class="repeatLines_st2" x1="478.7" y1="474.6" x2="478.7" y2="600.6" />

                        <line id="Line27-4_noactive" class="repeatLines_st2" x1="242.3" y1="596.1" x2="359.3" y2="479.1" />
                        <line id="Line27-3_noactive" class="repeatLines_st2" x1="242.3" y1="479.1" x2="359.3" y2="596.1" />
                        <line id="Line27-2_noactive" class="repeatLines_st2" x1="237.8" y1="597.1" x2="363.8" y2="597.1" />
                        <line id="Line27-1_noactive" class="repeatLines_st2" x1="360.3" y1="474.6" x2="360.3" y2="600.6" />

                        <line id="Line26-4_noactive" class="repeatLines_st2" x1="123.9" y1="596.1" x2="240.9" y2="479.1" />
                        <line id="Line26-3_noactive" class="repeatLines_st2" x1="123.9" y1="479.1" x2="240.9" y2="596.1" />
                        <line id="Line26-2_noactive" class="repeatLines_st2" x1="119.4" y1="597.1" x2="245.4" y2="597.1" />
                        <line id="Line26-1_noactive" class="repeatLines_st2" x1="241.9" y1="474.6" x2="241.9" y2="600.6" />

                        <line id="Line25-5_noactive" class="repeatLines_st2" x1="5.5" y1="596.1" x2="122.5" y2="479.1" />
                        <line id="Line25-4_noactive" class="repeatLines_st2" x1="5.5" y1="479.1" x2="122.5" y2="596.1" />
                        <line id="Line25-3_noactive" class="repeatLines_st2" x1="4.5" y1="474.6" x2="4.5" y2="600.6" />
                        <line id="Line25-2_noactive" class="repeatLines_st2" x1="1" y1="597.1" x2="127" y2="597.1" />
                        <line id="Line25-1_noactive" class="repeatLines_st2" x1="123.5" y1="474.6" x2="123.5" y2="600.6" />

                        <line id="Line24-4_noactive" class="repeatLines_st2" x1="597.5" y1="477.7" x2="714.5" y2="360.7" />
                        <line id="Line24-3_noactive" class="repeatLines_st2" x1="597.5" y1="360.7" x2="714.5" y2="477.7" />
                        <line id="Line24-2_noactive" class="repeatLines_st2" x1="593" y1="478.7" x2="719" y2="478.7" />
                        <line id="Line24-1_noactive" class="repeatLines_st2" x1="715.5" y1="356.2" x2="715.5" y2="482.2" />

                        <line id="Line23-4_noactive" class="repeatLines_st2" x1="479.1" y1="477.7" x2="596.1" y2="360.7" />
                        <line id="Line23-3_noactive" class="repeatLines_st2" x1="479.1" y1="360.7" x2="596.1" y2="477.7" />
                        <line id="Line23-2_noactive" class="repeatLines_st2" x1="474.6" y1="478.7" x2="600.6" y2="478.7" />
                        <line id="Line23-1_noactive" class="repeatLines_st2" x1="597.1" y1="356.2" x2="597.1" y2="482.2" />

                        <line id="Line22-4_noactive" class="repeatLines_st2" x1="360.7" y1="477.7" x2="477.7" y2="360.7" />
                        <line id="Line22-3_noactive" class="repeatLines_st2" x1="360.7" y1="360.7" x2="477.7" y2="477.7" />
                        <line id="Line22-2_noactive" class="repeatLines_st2" x1="356.2" y1="478.7" x2="482.2" y2="478.7" />
                        <line id="Line22-1_noactive" class="repeatLines_st2" x1="478.7" y1="356.2" x2="478.7" y2="482.2" />

                        <line id="Line21-4_noactive" class="repeatLines_st2" x1="242.3" y1="477.7" x2="359.3" y2="360.7" />
                        <line id="Line21-3_noactive" class="repeatLines_st2" x1="242.3" y1="360.7" x2="359.3" y2="477.7" />
                        <line id="Line21-2_noactive" class="repeatLines_st2" x1="237.8" y1="478.7" x2="363.8" y2="478.7" />
                        <line id="Line21-1_noactive" class="repeatLines_st2" x1="360.3" y1="356.2" x2="360.3" y2="482.2" />

                        <line id="Line20-4_noactive" class="repeatLines_st2" x1="123.9" y1="477.7" x2="240.9" y2="360.7" />
                        <line id="Line20-3_noactive" class="repeatLines_st2" x1="123.9" y1="360.7" x2="240.9" y2="477.7" />
                        <line id="Line20-2_noactive" class="repeatLines_st2" x1="119.4" y1="478.7" x2="245.4" y2="478.7" />
                        <line id="Line20-1_noactive" class="repeatLines_st2" x1="241.9" y1="356.2" x2="241.9" y2="482.2" />

                        <line id="Line19-5_noactive" class="repeatLines_st2" x1="5.5" y1="477.7" x2="122.5" y2="360.7" />
                        <line id="Line19-4_noactive" class="repeatLines_st2" x1="5.5" y1="360.7" x2="122.5" y2="477.7" />
                        <line id="Line19-3_noactive" class="repeatLines_st2" x1="4.5" y1="356.2" x2="4.5" y2="482.2" />
                        <line id="Line19-2_noactive" class="repeatLines_st2" x1="1" y1="478.7" x2="127" y2="478.7" />
                        <line id="Line19-1_noactive" class="repeatLines_st2" x1="123.5" y1="356.2" x2="123.5" y2="482.2" />

                        <line id="Line18-4_noactive" class="repeatLines_st2" x1="597.5" y1="359.3" x2="714.5" y2="242.3" />
                        <line id="Line18-3_noactive" class="repeatLines_st2" x1="597.5" y1="242.3" x2="714.5" y2="359.3" />
                        <line id="Line18-2_noactive" class="repeatLines_st2" x1="593" y1="360.3" x2="719" y2="360.3" />
                        <line id="Line18-1_noactive" class="repeatLines_st2" x1="715.5" y1="237.8" x2="715.5" y2="363.8" />

                        <line id="Line17-4_noactive" class="repeatLines_st2" x1="479.1" y1="359.3" x2="596.1" y2="242.3" />
                        <line id="Line17-3_noactive" class="repeatLines_st2" x1="479.1" y1="242.3" x2="596.1" y2="359.3" />
                        <line id="Line17-2_noactive" class="repeatLines_st2" x1="474.6" y1="360.3" x2="600.6" y2="360.3" />
                        <line id="Line17-1_noactive" class="repeatLines_st2" x1="597.1" y1="237.8" x2="597.1" y2="363.8" />

                        <line id="Line16-4_noactive" class="repeatLines_st2" x1="360.7" y1="359.3" x2="477.7" y2="242.3" />
                        <line id="Line16-3_noactive" class="repeatLines_st2" x1="360.7" y1="242.3" x2="477.7" y2="359.3" />
                        <line id="Line16-2_noactive" class="repeatLines_st2" x1="356.2" y1="360.3" x2="482.2" y2="360.3" />
                        <line id="Line16-1_noactive" class="repeatLines_st2" x1="478.7" y1="237.8" x2="478.7" y2="363.8" />-->

                            <line id="Line15-4_noactive" class="repeatLines_st2" x1="242.3" y1="359.3" x2="359.3" y2="242.3"></line>
                            <line id="Line15-3_noactive" class="repeatLines_st2" x1="242.3" y1="242.3" x2="359.3" y2="359.3"></line>
                            <line id="Line15-2_noactive" class="repeatLines_st2" x1="237.8" y1="360.3" x2="363.8" y2="360.3"></line>
                            <line id="Line15-1_noactive" class="repeatLines_st2" x1="360.3" y1="237.8" x2="360.3" y2="363.8"></line>

                            <line id="Line14-4_noactive" class="repeatLines_st2" x1="123.9" y1="359.3" x2="240.9" y2="242.3"></line>
                            <line id="Line14-3_noactive" class="repeatLines_st2" x1="123.9" y1="242.3" x2="240.9" y2="359.3"></line>
                            <line id="Line14-2_noactive" class="repeatLines_st2" x1="119.4" y1="360.3" x2="245.4" y2="360.3"></line>
                            <line id="Line14-1_noactive" class="repeatLines_st2" x1="241.9" y1="237.8" x2="241.9" y2="363.8"></line>

                            <line id="Line13-5_noactive" class="repeatLines_st2" x1="5.5" y1="359.3" x2="122.5" y2="242.3"></line>
                            <line id="Line13-4_noactive" class="repeatLines_st2" x1="5.5" y1="242.3" x2="122.5" y2="359.3"></line>
                            <line id="Line13-3_noactive" class="repeatLines_st2" x1="4.5" y1="237.8" x2="4.5" y2="363.8"></line>
                            <line id="Line13-2_noactive" class="repeatLines_st2" x1="1" y1="360.3" x2="127" y2="360.3"></line>
                            <line id="Line13-1_noactive" class="repeatLines_st2" x1="123.5" y1="237.8" x2="123.5" y2="363.8"></line>

                            <!-- <line id="Line12-4_noactive" class="repeatLines_st2" x1="597.5" y1="240.9" x2="714.5" y2="123.9" />
                        <line id="Line12-3_noactive" class="repeatLines_st2" x1="597.5" y1="123.9" x2="714.5" y2="240.9" />
                        <line id="Line12-2_noactive" class="repeatLines_st2" x1="593" y1="241.9" x2="719" y2="241.9" />
                        <line id="Line12-1_noactive" class="repeatLines_st2" x1="715.5" y1="119.4" x2="715.5" y2="245.4" />

                        <line id="Line11-4_noactive" class="repeatLines_st2" x1="479.1" y1="240.9" x2="596.1" y2="123.9" />
                        <line id="Line11-3_noactive" class="repeatLines_st2" x1="479.1" y1="123.9" x2="596.1" y2="240.9" />
                        <line id="Line11-2_noactive" class="repeatLines_st2" x1="474.6" y1="241.9" x2="600.6" y2="241.9" />
                        <line id="Line11-1_noactive" class="repeatLines_st2" x1="597.1" y1="119.4" x2="597.1" y2="245.4" />

                        <line id="Line10-4_noactive" class="repeatLines_st2" x1="360.7" y1="240.9" x2="477.7" y2="123.9" />
                        <line id="Line10-3_noactive" class="repeatLines_st2" x1="360.7" y1="123.9" x2="477.7" y2="240.9" />
                        <line id="Line10-2_noactive" class="repeatLines_st2" x1="356.2" y1="241.9" x2="482.2" y2="241.9" />
                        <line id="Line10-1_noactive" class="repeatLines_st2" x1="478.7" y1="119.4" x2="478.7" y2="245.4" />-->

                            <line id="Line09-4_noactive" class="repeatLines_st2" x1="242.3" y1="240.9" x2="359.3" y2="123.9"></line>
                            <line id="Line09-3_noactive" class="repeatLines_st2" x1="242.3" y1="123.9" x2="359.3" y2="240.9"></line>
                            <line id="Line09-2_noactive" class="repeatLines_st2" x1="237.8" y1="241.9" x2="363.8" y2="241.9"></line>
                            <line id="Line09-1_noactive" class="repeatLines_st2" x1="360.3" y1="119.4" x2="360.3" y2="245.4"></line>

                            <line id="Line08-4_noactive" class="repeatLines_st2" x1="123.9" y1="240.9" x2="240.9" y2="123.9"></line>
                            <line id="Line08-3_noactive" class="repeatLines_st2" x1="123.9" y1="123.9" x2="240.9" y2="240.9"></line>
                            <line id="Line08-2_noactive" class="repeatLines_st2" x1="119.4" y1="241.9" x2="245.4" y2="241.9"></line>
                            <line id="Line08-1_noactive" class="repeatLines_st2" x1="241.9" y1="119.4" x2="241.9" y2="245.4"></line>

                            <line id="Line07-5_noactive" class="repeatLines_st2" x1="5.5" y1="240.9" x2="122.5" y2="123.9"></line>
                            <line id="Line07-4_noactive" class="repeatLines_st2" x1="5.5" y1="123.9" x2="122.5" y2="240.9"></line>
                            <line id="Line07-3_noactive" class="repeatLines_st2" x1="4.5" y1="119.4" x2="4.5" y2="245.4"></line>
                            <line id="Line07-2_noactive" class="repeatLines_st2" x1="1" y1="241.9" x2="127" y2="241.9"></line>
                            <line id="Line07-1_noactive" class="repeatLines_st2" x1="123.5" y1="119.4" x2="123.5" y2="245.4"></line>

                            <!--  <line id="Line06-5_noactive" class="repeatLines_st2" x1="597.5" y1="122.5" x2="714.5" y2="5.5" />
                        <line id="Line06-4_noactive" class="repeatLines_st2" x1="597.62" y1="5.5" x2="714.62" y2="122.5" />
                        <line id="Line06-3_noactive" class="repeatLines_st2" x1="593" y1="123.5" x2="719" y2="123.5" />
                        <line id="Line06-2_noactive" class="repeatLines_st2" x1="715.5" y1="1" x2="715.5" y2="127" />
                        <line id="Line06-1_noactive" class="repeatLines_st2" x1="593" y1="4.5" x2="719" y2="4.5" />

                        <line id="Line05-5_noactive" class="repeatLines_st2" x1="479.1" y1="122.5" x2="596.1" y2="5.5" />
                        <line id="Line05-4_noactive" class="repeatLines_st2" x1="479.1" y1="5.5" x2="596.1" y2="122.5" />
                        <line id="Line05-3_noactive" class="repeatLines_st2" x1="474.6" y1="123.5" x2="600.6" y2="123.5" />
                        <line id="Line05-2_noactive" class="repeatLines_st2" x1="597.1" y1="1" x2="597.1" y2="127" />
                        <line id="Line05-1_noactive" class="repeatLines_st2" x1="474.6" y1="4.5" x2="600.6" y2="4.5" />

                        <line id="Line04-5_noactive" class="repeatLines_st2" x1="360.7" y1="122.5" x2="477.7" y2="5.5" />
                        <line id="Line04-4_noactive" class="repeatLines_st2" x1="360.7" y1="5.5" x2="477.7" y2="122.5" />
                        <line id="Line04-3_noactive" class="repeatLines_st2" x1="356.2" y1="123.5" x2="482.2" y2="123.5" />
                        <line id="Line04-2_noactive" class="repeatLines_st2" x1="478.7" y1="1" x2="478.7" y2="127" />
                        <line id="Line04-1_noactive" class="repeatLines_st2" x1="356.2" y1="4.5" x2="482.2" y2="4.5" />-->

                            <line id="Line03-5_noactive" class="repeatLines_st2" x1="242.3" y1="122.5" x2="359.3" y2="5.5"></line>
                            <line id="Line03-4_noactive" class="repeatLines_st2" x1="242.3" y1="5.5" x2="359.3" y2="122.5"></line>
                            <line id="Line03-3_noactive" class="repeatLines_st2" x1="237.8" y1="123.5" x2="363.8" y2="123.5"></line>
                            <line id="Line03-2_noactive" class="repeatLines_st2" x1="360.3" y1="1" x2="360.3" y2="127"></line>
                            <line id="Line03-1_noactive" class="repeatLines_st2" x1="237.8" y1="4.5" x2="363.8" y2="4.5"></line>

                            <line id="Line02-5_noactive" class="repeatLines_st2" x1="123.9" y1="122.5" x2="240.9" y2="5.5"></line>
                            <line id="Line02-4_noactive" class="repeatLines_st2" x1="123.9" y1="5.5" x2="240.9" y2="122.5"></line>
                            <line id="Line02-3_noactive" class="repeatLines_st2" x1="119.4" y1="123.5" x2="245.4" y2="123.5"></line>
                            <line id="Line02-2_noactive" class="repeatLines_st2" x1="241.9" y1="1" x2="241.9" y2="127"></line>
                            <line id="Line02-1_noactive" class="repeatLines_st2" x1="119.4" y1="4.5" x2="245.4" y2="4.5"></line>

                            <line id="Line01-6_noactive" class="repeatLines_st2" x1="5.5" y1="122.5" x2="122.5" y2="5.5"></line>
                            <line id="Line01-5_noactive" class="repeatLines_st2" x1="5.5" y1="5.5" x2="122.5" y2="122.5"></line>
                            <line id="Line01-4_noactive" class="repeatLines_st2" x1="4.5" y1="1" x2="4.5" y2="127"></line>
                            <line id="Line01-3_noactive" class="repeatLines_st2" x1="1" y1="123.5" x2="127" y2="123.5"></line>
                            <line id="Line01-2_noactive" class="repeatLines_st2" x1="123.5" y1="1" x2="123.5" y2="127"></line>
                            <line id="Line01-1_noactive" class="repeatLines_st2" x1="1" y1="4.5" x2="127" y2="4.5"></line>

                        </g>
                        <g id="Line">
                            <!-- <line id="Line36-4" class="line repeatLines_st1" x1="597.5" y1="714.5" x2="714.5" y2="597.5" />
                        <line id="Line36-3" class="line repeatLines_st1" x1="597.5" y1="597.5" x2="714.5" y2="714.5" />
                        <line id="Line36-2" class="line repeatLines_st1" x1="593" y1="715.5" x2="719" y2="715.5" />
                        <line id="Line36-1" class="line repeatLines_st1" x1="715.5" y1="593" x2="715.5" y2="719" />

                        <line id="Line35-4" class="line repeatLines_st1" x1="479.1" y1="714.5" x2="596.1" y2="597.5" />
                        <line id="Line35-3" class="line repeatLines_st1" x1="479.1" y1="597.5" x2="596.1" y2="714.5" />
                        <line id="Line35-2" class="line repeatLines_st1" x1="474.6" y1="715.5" x2="600.6" y2="715.5" />
                        <line id="Line35-1" class="line repeatLines_st1" x1="597.1" y1="593" x2="597.1" y2="719" />

                        <line id="Line34-4" class="line repeatLines_st1" x1="360.7" y1="714.5" x2="477.7" y2="597.5" />
                        <line id="Line34-3" class="line repeatLines_st1" x1="360.7" y1="597.5" x2="477.7" y2="714.5" />
                        <line id="Line34-2" class="line repeatLines_st1" x1="356.2" y1="715.5" x2="482.2" y2="715.5" />
                        <line id="Line34-1" class="line repeatLines_st1" x1="478.7" y1="593" x2="478.7" y2="719" />

                        <line id="Line33-4" class="line repeatLines_st1" x1="242.3" y1="714.5" x2="359.3" y2="597.5" />
                        <line id="Line33-3" class="line repeatLines_st1" x1="242.3" y1="597.5" x2="359.3" y2="714.5" />
                        <line id="Line33-2" class="line repeatLines_st1" x1="237.8" y1="715.5" x2="363.8" y2="715.5" />
                        <line id="Line33-1" class="line repeatLines_st1" x1="360.3" y1="593" x2="360.3" y2="719" />

                        <line id="Line32-4" class="line repeatLines_st1" x1="123.9" y1="714.5" x2="240.9" y2="597.5" />
                        <line id="Line32-3" class="line repeatLines_st1" x1="123.9" y1="597.5" x2="240.9" y2="714.5" />
                        <line id="Line32-2" class="line repeatLines_st1" x1="119.4" y1="715.5" x2="245.4" y2="715.5" />
                        <line id="Line32-1" class="line repeatLines_st1" x1="241.9" y1="593" x2="241.9" y2="719" />

                        <line id="Line31-5" class="line repeatLines_st1" x1="5.5" y1="714.5" x2="122.5" y2="597.5" />
                        <line id="Line31-4" class="line repeatLines_st1" x1="5.5" y1="597.5" x2="122.5" y2="714.5" />
                        <line id="Line31-3" class="line repeatLines_st1" x1="4.5" y1="593" x2="4.5" y2="719" />
                        <line id="Line31-2" class="line repeatLines_st1" x1="1" y1="715.5" x2="127" y2="715.5" />
                        <line id="Line31-1" class="line repeatLines_st1" x1="123.5" y1="593" x2="123.5" y2="719" />

                        <line id="Line30-4" class="line repeatLines_st1" x1="597.5" y1="596.1" x2="714.5" y2="479.1" />
                        <line id="Line30-3" class="line repeatLines_st1" x1="597.5" y1="479.1" x2="714.5" y2="596.1" />
                        <line id="Line30-2" class="line repeatLines_st1" x1="593" y1="597.1" x2="719" y2="597.1" />
                        <line id="Line30-1" class="line repeatLines_st1" x1="715.5" y1="474.6" x2="715.5" y2="600.6" />

                        <line id="Line29-4" class="line repeatLines_st1" x1="479.1" y1="596.1" x2="596.1" y2="479.1" />
                        <line id="Line29-3" class="line repeatLines_st1" x1="479.1" y1="479.1" x2="596.1" y2="596.1" />
                        <line id="Line29-2" class="line repeatLines_st1" x1="474.6" y1="597.1" x2="600.6" y2="597.1" />
                        <line id="Line29-1" class="line repeatLines_st1" x1="597.1" y1="474.6" x2="597.1" y2="600.6" />

                        <line id="Line28-4" class="line repeatLines_st1" x1="360.7" y1="596.1" x2="477.7" y2="479.1" />
                        <line id="Line28-3" class="line repeatLines_st1" x1="360.7" y1="479.1" x2="477.7" y2="596.1" />
                        <line id="Line28-2" class="line repeatLines_st1" x1="356.2" y1="597.1" x2="482.2" y2="597.1" />
                        <line id="Line28-1" class="line repeatLines_st1" x1="478.7" y1="474.6" x2="478.7" y2="600.6" />

                        <line id="Line27-4" class="line repeatLines_st1" x1="242.3" y1="596.1" x2="359.3" y2="479.1" />
                        <line id="Line27-3" class="line repeatLines_st1" x1="242.3" y1="479.1" x2="359.3" y2="596.1" />
                        <line id="Line27-2" class="line repeatLines_st1" x1="237.8" y1="597.1" x2="363.8" y2="597.1" />
                        <line id="Line27-1" class="line repeatLines_st1" x1="360.3" y1="474.6" x2="360.3" y2="600.6" />

                        <line id="Line26-4" class="line repeatLines_st1" x1="123.9" y1="596.1" x2="240.9" y2="479.1" />
                        <line id="Line26-3" class="line repeatLines_st1" x1="123.9" y1="479.1" x2="240.9" y2="596.1" />
                        <line id="Line26-2" class="line repeatLines_st1" x1="119.4" y1="597.1" x2="245.4" y2="597.1" />
                        <line id="Line26-1" class="line repeatLines_st1" x1="241.9" y1="474.6" x2="241.9" y2="600.6" />

                        <line id="Line25-5" class="line repeatLines_st1" x1="5.5" y1="596.1" x2="122.5" y2="479.1" />
                        <line id="Line25-4" class="line repeatLines_st1" x1="5.5" y1="479.1" x2="122.5" y2="596.1" />
                        <line id="Line25-3" class="line repeatLines_st1" x1="4.5" y1="474.6" x2="4.5" y2="600.6" />
                        <line id="Line25-2" class="line repeatLines_st1" x1="1" y1="597.1" x2="127" y2="597.1" />
                        <line id="Line25-1" class="line repeatLines_st1" x1="123.5" y1="474.6" x2="123.5" y2="600.6" />

                        <line id="Line24-4" class="line repeatLines_st1" x1="597.5" y1="477.7" x2="714.5" y2="360.7" />
                        <line id="Line24-3" class="line repeatLines_st1" x1="597.5" y1="360.7" x2="714.5" y2="477.7" />
                        <line id="Line24-2" class="line repeatLines_st1" x1="593" y1="478.7" x2="719" y2="478.7" />
                        <line id="Line24-1" class="line repeatLines_st1" x1="715.5" y1="356.2" x2="715.5" y2="482.2" />

                        <line id="Line23-4" class="line repeatLines_st1" x1="479.1" y1="477.7" x2="596.1" y2="360.7" />
                        <line id="Line23-3" class="line repeatLines_st1" x1="479.1" y1="360.7" x2="596.1" y2="477.7" />
                        <line id="Line23-2" class="line repeatLines_st1" x1="474.6" y1="478.7" x2="600.6" y2="478.7" />
                        <line id="Line23-1" class="line repeatLines_st1" x1="597.1" y1="356.2" x2="597.1" y2="482.2" />

                        <line id="Line22-4" class="line repeatLines_st1" x1="360.7" y1="477.7" x2="477.7" y2="360.7" />
                        <line id="Line22-3" class="line repeatLines_st1" x1="360.7" y1="360.7" x2="477.7" y2="477.7" />
                        <line id="Line22-2" class="line repeatLines_st1" x1="356.2" y1="478.7" x2="482.2" y2="478.7" />
                        <line id="Line22-1" class="line repeatLines_st1" x1="478.7" y1="356.2" x2="478.7" y2="482.2" />

                        <line id="Line21-4" class="line repeatLines_st1" x1="242.3" y1="477.7" x2="359.3" y2="360.7" />
                        <line id="Line21-3" class="line repeatLines_st1" x1="242.3" y1="360.7" x2="359.3" y2="477.7" />
                        <line id="Line21-2" class="line repeatLines_st1" x1="237.8" y1="478.7" x2="363.8" y2="478.7" />
                        <line id="Line21-1" class="line repeatLines_st1" x1="360.3" y1="356.2" x2="360.3" y2="482.2" />

                        <line id="Line20-4" class="line repeatLines_st1" x1="123.9" y1="477.7" x2="240.9" y2="360.7" />
                        <line id="Line20-3" class="line repeatLines_st1" x1="123.9" y1="360.7" x2="240.9" y2="477.7" />
                        <line id="Line20-2" class="line repeatLines_st1" x1="119.4" y1="478.7" x2="245.4" y2="478.7" />
                        <line id="Line20-1" class="line repeatLines_st1" x1="241.9" y1="356.2" x2="241.9" y2="482.2" />

                        <line id="Line19-5" class="line repeatLines_st1" x1="5.5" y1="477.7" x2="122.5" y2="360.7" />
                        <line id="Line19-4" class="line repeatLines_st1" x1="5.5" y1="360.7" x2="122.5" y2="477.7" />
                        <line id="Line19-3" class="line repeatLines_st1" x1="4.5" y1="356.2" x2="4.5" y2="482.2" />
                        <line id="Line19-2" class="line repeatLines_st1" x1="1" y1="478.7" x2="127" y2="478.7" />
                        <line id="Line19-1" class="line repeatLines_st1" x1="123.5" y1="356.2" x2="123.5" y2="482.2" />

                        <line id="Line18-4" class="line repeatLines_st1" x1="597.5" y1="359.3" x2="714.5" y2="242.3" />
                        <line id="Line18-3" class="line repeatLines_st1" x1="597.5" y1="242.3" x2="714.5" y2="359.3" />
                        <line id="Line18-2" class="line repeatLines_st1" x1="593" y1="360.3" x2="719" y2="360.3" />
                        <line id="Line18-1" class="line repeatLines_st1" x1="715.5" y1="237.8" x2="715.5" y2="363.8" />

                        <line id="Line17-4" class="line repeatLines_st1" x1="479.1" y1="359.3" x2="596.1" y2="242.3" />
                        <line id="Line17-3" class="line repeatLines_st1" x1="479.1" y1="242.3" x2="596.1" y2="359.3" />
                        <line id="Line17-2" class="line repeatLines_st1" x1="474.6" y1="360.3" x2="600.6" y2="360.3" />
                        <line id="Line17-1" class="line repeatLines_st1" x1="597.1" y1="237.8" x2="597.1" y2="363.8" />

                        <line id="Line16-4" class="line repeatLines_st1" x1="360.7" y1="359.3" x2="477.7" y2="242.3" />
                        <line id="Line16-3" class="line repeatLines_st1" x1="360.7" y1="242.3" x2="477.7" y2="359.3" />
                        <line id="Line16-2" class="line repeatLines_st1" x1="356.2" y1="360.3" x2="482.2" y2="360.3" />
                        <line id="Line16-1" class="line repeatLines_st1" x1="478.7" y1="237.8" x2="478.7" y2="363.8" />-->

                            <line id="Line15-4" class="line repeatLines_st1" x1="242.3" y1="359.3" x2="359.3" y2="242.3"></line>
                            <line id="Line15-3" class="line repeatLines_st1" x1="242.3" y1="242.3" x2="359.3" y2="359.3"></line>
                            <line id="Line15-2" class="line repeatLines_st1" x1="237.8" y1="360.3" x2="363.8" y2="360.3"></line>
                            <line id="Line15-1" class="line repeatLines_st1" x1="360.3" y1="237.8" x2="360.3" y2="363.8"></line>

                            <line id="Line14-4" class="line repeatLines_st1" x1="123.9" y1="359.3" x2="240.9" y2="242.3"></line>
                            <line id="Line14-3" class="line repeatLines_st1" x1="123.9" y1="242.3" x2="240.9" y2="359.3"></line>
                            <line id="Line14-2" class="line repeatLines_st1" x1="119.4" y1="360.3" x2="245.4" y2="360.3"></line>
                            <line id="Line14-1" class="line repeatLines_st1" x1="241.9" y1="237.8" x2="241.9" y2="363.8"></line>

                            <line id="Line13-5" class="line repeatLines_st1" x1="5.5" y1="359.3" x2="122.5" y2="242.3"></line>
                            <line id="Line13-4" class="line repeatLines_st3" x1="5.5" y1="242.3" x2="122.5" y2="359.3"></line>
                            <line id="Line13-3" class="line repeatLines_st1" x1="4.5" y1="237.8" x2="4.5" y2="363.8"></line>
                            <line id="Line13-2" class="line repeatLines_st1" x1="1" y1="360.3" x2="127" y2="360.3"></line>
                            <line id="Line13-1" class="line repeatLines_st1" x1="123.5" y1="237.8" x2="123.5" y2="363.8"></line>

                            <!-- <line id="Line12-4" class="line repeatLines_st1" x1="597.5" y1="240.9" x2="714.5" y2="123.9" />
                        <line id="Line12-3" class="line repeatLines_st1" x1="597.5" y1="123.9" x2="714.5" y2="240.9" />
                        <line id="Line12-2" class="line repeatLines_st1" x1="593" y1="241.9" x2="719" y2="241.9" />
                        <line id="Line12-1" class="line repeatLines_st1" x1="715.5" y1="119.4" x2="715.5" y2="245.4" />

                        <line id="Line11-4" class="line repeatLines_st1" x1="479.1" y1="240.9" x2="596.1" y2="123.9" />
                        <line id="Line11-3" class="line repeatLines_st1" x1="479.1" y1="123.9" x2="596.1" y2="240.9" />
                        <line id="Line11-2" class="line repeatLines_st1" x1="474.6" y1="241.9" x2="600.6" y2="241.9" />
                        <line id="Line11-1" class="line repeatLines_st1" x1="597.1" y1="119.4" x2="597.1" y2="245.4" />

                        <line id="Line10-4" class="line repeatLines_st1" x1="360.7" y1="240.9" x2="477.7" y2="123.9" />
                        <line id="Line10-3" class="line repeatLines_st1" x1="360.7" y1="123.9" x2="477.7" y2="240.9" />
                        <line id="Line10-2" class="line repeatLines_st1" x1="356.2" y1="241.9" x2="482.2" y2="241.9" />
                        <line id="Line10-1" class="line repeatLines_st1" x1="478.7" y1="119.4" x2="478.7" y2="245.4" />-->

                            <line id="Line09-4" class="line repeatLines_st1" x1="242.3" y1="240.9" x2="359.3" y2="123.9"></line>
                            <line id="Line09-3" class="line repeatLines_st1" x1="242.3" y1="123.9" x2="359.3" y2="240.9"></line>
                            <line id="Line09-2" class="line repeatLines_st1" x1="237.8" y1="241.9" x2="363.8" y2="241.9"></line>
                            <line id="Line09-1" class="line repeatLines_st1" x1="360.3" y1="119.4" x2="360.3" y2="245.4"></line>

                            <line id="Line08-4" class="line repeatLines_st1" x1="123.9" y1="240.9" x2="240.9" y2="123.9"></line>
                            <line id="Line08-3" class="line repeatLines_st1" x1="123.9" y1="123.9" x2="240.9" y2="240.9"></line>
                            <line id="Line08-2" class="line repeatLines_st1" x1="119.4" y1="241.9" x2="245.4" y2="241.9"></line>
                            <line id="Line08-1" class="line repeatLines_st1" x1="241.9" y1="119.4" x2="241.9" y2="245.4"></line>

                            <line id="Line07-5" class="line repeatLines_st3" x1="5.5" y1="240.9" x2="122.5" y2="123.9"></line>
                            <line id="Line07-4" class="line repeatLines_st1" x1="5.5" y1="123.9" x2="122.5" y2="240.9"></line>
                            <line id="Line07-3" class="line repeatLines_st1" x1="4.5" y1="119.4" x2="4.5" y2="245.4"></line>
                            <line id="Line07-2" class="line repeatLines_st1" x1="1" y1="241.9" x2="127" y2="241.9"></line>
                            <line id="Line07-1" class="line repeatLines_st1" x1="123.5" y1="119.4" x2="123.5" y2="245.4"></line>

                            <!-- <line id="Line06-5" class="line repeatLines_st1" x1="597.5" y1="122.5" x2="714.5" y2="5.5" />
                        <line id="Line06-4" class="line repeatLines_st1" x1="597.62" y1="5.5" x2="714.62" y2="122.5" />
                        <line id="Line06-3" class="line repeatLines_st1" x1="593" y1="123.5" x2="719" y2="123.5" />
                        <line id="Line06-2" class="line repeatLines_st1" x1="715.5" y1="1" x2="715.5" y2="127" />
                        <line id="Line06-1" class="line repeatLines_st1" x1="593" y1="4.5" x2="719" y2="4.5" />

                        <line id="Line05-5" class="line repeatLines_st1" x1="479.1" y1="122.5" x2="596.1" y2="5.5" />
                        <line id="Line05-4" class="line repeatLines_st1" x1="479.1" y1="5.5" x2="596.1" y2="122.5" />
                        <line id="Line05-3" class="line repeatLines_st1" x1="474.6" y1="123.5" x2="600.6" y2="123.5" />
                        <line id="Line05-2" class="line repeatLines_st1" x1="597.1" y1="1" x2="597.1" y2="127" />
                        <line id="Line05-1" class="line repeatLines_st1" x1="474.6" y1="4.5" x2="600.6" y2="4.5" />

                        <line id="Line04-5" class="line repeatLines_st1" x1="360.7" y1="122.5" x2="477.7" y2="5.5" />
                        <line id="Line04-4" class="line repeatLines_st1" x1="360.7" y1="5.5" x2="477.7" y2="122.5" />
                        <line id="Line04-3" class="line repeatLines_st1" x1="356.2" y1="123.5" x2="482.2" y2="123.5" />
                        <line id="Line04-2" class="line repeatLines_st1" x1="478.7" y1="1" x2="478.7" y2="127" />
                        <line id="Line04-1" class="line repeatLines_st1" x1="356.2" y1="4.5" x2="482.2" y2="4.5" />-->

                            <line id="Line03-5" class="line repeatLines_st1" x1="242.3" y1="122.5" x2="359.3" y2="5.5"></line>
                            <line id="Line03-4" class="line repeatLines_st1" x1="242.3" y1="5.5" x2="359.3" y2="122.5"></line>
                            <line id="Line03-3" class="line repeatLines_st1" x1="237.8" y1="123.5" x2="363.8" y2="123.5"></line>
                            <line id="Line03-2" class="line repeatLines_st1" x1="360.3" y1="1" x2="360.3" y2="127"></line>
                            <line id="Line03-1" class="line repeatLines_st1" x1="237.8" y1="4.5" x2="363.8" y2="4.5"></line>

                            <line id="Line02-5" class="line repeatLines_st1" x1="123.9" y1="122.5" x2="240.9" y2="5.5"></line>
                            <line id="Line02-4" class="line repeatLines_st1" x1="123.9" y1="5.5" x2="240.9" y2="122.5"></line>
                            <line id="Line02-3" class="line repeatLines_st1" x1="119.4" y1="123.5" x2="245.4" y2="123.5"></line>
                            <line id="Line02-2" class="line repeatLines_st1" x1="241.9" y1="1" x2="241.9" y2="127"></line>
                            <line id="Line02-1" class="line repeatLines_st1" x1="119.4" y1="4.5" x2="245.4" y2="4.5"></line>

                            <line id="Line01-6" class="line repeatLines_st1" x1="5.5" y1="122.5" x2="122.5" y2="5.5"></line>
                            <line id="Line01-5" class="line repeatLines_st1" x1="5.5" y1="5.5" x2="122.5" y2="122.5"></line>
                            <line id="Line01-4" class="line repeatLines_st1" x1="4.5" y1="1" x2="4.5" y2="127"></line>
                            <line id="Line01-3" class="line repeatLines_st1" x1="1" y1="123.5" x2="127" y2="123.5"></line>
                            <line id="Line01-2" class="line repeatLines_st3" x1="123.5" y1="1" x2="123.5" y2="127"></line>
                            <line id="Line01-1" class="line repeatLines_st1" x1="1" y1="4.5" x2="127" y2="4.5"></line>
                        </g>
                    </svg>
                