<?xml version="1.0" encoding="utf-8"?>
<!-- Generator: Adobe Illustrator 16.2.0, SVG Export Plug-In . SVG Version: 6.00 Build 0)  -->
<!DOCTYPE svg PUBLIC "-//W3C//DTD SVG 1.1//EN" "http://www.w3.org/Graphics/SVG/1.1/DTD/svg11.dtd">
<svg version="1.1" id="Layer_x5F_1" xmlns="http://www.w3.org/2000/svg" xmlns:xlink="http://www.w3.org/1999/xlink" x="0px"
	 y="0px" width="2600px" height="2600px" viewBox="0 0 2600 2600" enable-background="new 0 0 2600 2600" xml:space="preserve"
	 style="opacity: 0.3"
	 >
<g>
	<path fill-rule="evenodd" clip-rule="evenodd" fill="#939393" d="M1905.681,1287.77c0,0.21,0,0.421,0,0.632
		c0,0.422-0.033,0.914-0.105,1.477c-0.281,5.481-2.355,10.191-6.221,14.128c-4.357,4.218-9.559,6.327-15.605,6.327
		c-0.141,0-0.281,0-0.422,0h-31.84c-0.354,0-0.703,0-1.057,0c-5.342-0.352-9.945-2.461-13.813-6.327
		c-2.527-2.46-4.322-5.272-5.375-8.436c-0.773-2.249-1.162-4.638-1.162-7.169c0-0.351,0-0.668,0-0.949
		c0.072-4.217,0.107-8.47,0.107-12.758c0-146.909-51.877-272.273-155.627-376.093c-103.469-103.469-228.305-155.378-374.51-155.731
		c-146.206,0.353-271.042,52.262-374.512,155.731c-103.82,103.819-155.73,229.184-155.73,376.093c0,4.288,0.037,8.541,0.106,12.758
		c0,0.281,0,0.598,0,0.949c0,2.531-0.352,4.921-1.054,7.169c-1.054,3.163-2.882,5.976-5.483,8.436
		c-3.866,3.866-8.435,5.976-13.707,6.327c-0.422,0-0.808,0-1.159,0h-31.737c-0.141,0-0.316,0-0.528,0
		c-6.044,0-11.246-2.109-15.604-6.327c-3.867-3.937-5.94-8.646-6.221-14.128c-0.07-0.563-0.105-1.055-0.105-1.477
		c0-0.211,0-0.422,0-0.632c-0.071-4.358-0.105-8.716-0.105-13.074c0-167.785,59.255-310.968,177.767-429.55
		c118.3-118.159,260.99-177.415,428.073-177.766c167.082,0.352,309.738,59.607,427.969,177.766
		c118.58,118.582,177.871,261.765,177.871,429.55C1905.892,1279.054,1905.822,1283.411,1905.681,1287.77z"/>
</g>
<g>
	<path fill-rule="evenodd" clip-rule="evenodd" fill="#7F7F7F" d="M1754.589,1275.539v-2.109c0-0.351,0-0.774,0-1.266
		c-0.631-124.836-45.16-231.503-133.586-320c-88.637-88.638-195.621-133.132-320.951-133.483
		c-125.328,0.351-232.347,44.845-321.055,133.483c-88.426,88.497-132.92,195.164-133.482,320c0,0.492,0,0.915,0,1.266v2.109
		c-0.071,3.795-0.668,7.38-1.792,10.754c-1.757,5.061-4.64,9.594-8.646,13.602c-5.764,5.764-12.511,9.137-20.244,10.121v164.801
		c17.573-18.348,36.587-32.721,57.042-43.125c21.931-11.107,45.443-17.609,70.537-19.506v519.906
		c-53.773-4.146-100.201-29.416-139.282-75.807c-4.64-5.482-8.997-11.107-13.074-16.871c-4.779,1.898-9.947,2.848-15.499,2.848
		c-11.176,0-20.736-3.938-28.679-11.809c-7.38-7.451-11.247-16.344-11.598-26.676v-493.443h14.234c0.351,0,0.737,0,1.159,0
		c5.272-0.352,9.841-2.461,13.707-6.327c2.601-2.46,4.429-5.272,5.483-8.436c0.703-2.249,1.054-4.638,1.054-7.169
		c0-0.351,0-0.668,0-0.949c-0.069-4.217-0.106-8.47-0.106-12.758c0-146.909,51.91-272.273,155.73-376.093
		c103.469-103.469,228.306-155.378,374.512-155.731c146.205,0.353,271.041,52.262,374.51,155.731
		c103.75,103.819,155.627,229.184,155.627,376.093c0,4.288-0.035,8.541-0.107,12.758c0,0.281,0,0.598,0,0.949
		c0,2.531,0.389,4.921,1.162,7.169c1.053,3.163,2.848,5.976,5.375,8.436c3.867,3.866,8.471,5.976,13.813,6.327
		c0.354,0,0.703,0,1.057,0h14.338v493.443c-0.424,10.332-4.322,19.225-11.703,26.676c-7.943,7.871-17.504,11.809-28.678,11.809
		c-5.484,0-10.65-0.949-15.502-2.848c-4.078,5.764-8.436,11.389-13.072,16.871c-39.084,46.391-85.51,71.66-139.281,75.807v-519.906
		c25.164,1.896,48.711,8.398,70.641,19.506c20.385,10.404,39.363,24.777,56.938,43.125v-164.801
		c-7.662-0.983-14.375-4.356-20.139-10.121c-4.078-4.007-6.959-8.541-8.646-13.602
		C1755.257,1282.919,1754.66,1279.334,1754.589,1275.539z"/>
</g>
<g>
	<path fill-rule="evenodd" clip-rule="evenodd" fill="#939393" d="M1034.563,1426.42c0,0.701-0.035,1.334-0.105,1.896v491.334
		c-0.351,3.305-1.757,6.188-4.218,8.648c-2.459,2.457-5.341,3.863-8.645,4.217c-0.492,0.068-0.984,0.105-1.477,0.105h-65.686
		v-520.963h63.367c0.563-0.07,1.195-0.105,1.897-0.105c0.634,0,1.266,0.035,1.898,0.105c3.304,0.35,6.186,1.756,8.645,4.217
		c2.461,2.461,3.867,5.344,4.218,8.645C1034.528,1425.152,1034.563,1425.787,1034.563,1426.42z"/>
</g>
<g>
	<path fill-rule="evenodd" clip-rule="evenodd" fill="#939393" d="M1580.408,1411.553c0.633,0,1.266,0.035,1.898,0.105h63.26
		v520.963h-65.684c-0.492,0-0.949-0.037-1.373-0.105c-3.303-0.354-6.186-1.76-8.645-4.217c-2.531-2.461-3.973-5.344-4.322-8.648
		v-491.334c-0.072-0.563-0.105-1.195-0.105-1.896c0-0.633,0.033-1.268,0.105-1.9c0.35-3.301,1.791-6.184,4.322-8.645
		c2.459-2.461,5.342-3.867,8.645-4.217C1579.072,1411.588,1579.705,1411.553,1580.408,1411.553z"/>
</g>
<g>
	<path fill-rule="evenodd" clip-rule="evenodd" fill="#7F7F7F" d="M1877.423,1577.402c16.238,0,30.084,5.764,41.543,17.293
		c11.527,11.527,17.291,25.41,17.291,41.648v71.695c-0.281,15.676-6.045,29.102-17.291,40.275
		c-11.459,11.529-25.305,17.293-41.543,17.293c-0.35,0-0.703,0-1.055,0v-188.205
		C1876.72,1577.402,1877.074,1577.402,1877.423,1577.402z"/>
</g>
<g>
	<path fill-rule="evenodd" clip-rule="evenodd" fill="#7F7F7F" d="M722.576,1577.402c0.352,0,0.738,0,1.161,0v188.205
		c-0.423,0-0.809,0-1.161,0c-16.237,0-30.084-5.764-41.542-17.293c-11.248-11.174-17.012-24.6-17.292-40.275v-71.695
		c0-16.238,5.764-30.121,17.292-41.648C692.491,1583.166,706.339,1577.402,722.576,1577.402z"/>
</g>
</svg>
